<svg viewBox="-0.02 0.010000000000001563 144.12957332310017 106.71080225248649" xmlns="http://www.w3.org/2000/svg" width="2500" height="1851"><g fill="#fff"><path d="M.05 17.4c-.06 4.36 0 8.73 0 13.09a2.65 2.65 0 0 0 1.58 2.41q20.58 10.24 41.22 20.41C29.21 60.01 15.62 66.8 2 73.53a2.91 2.91 0 0 0-2 2.39v13.12a19.6 19.6 0 0 0 16.62 17.4c1.72.16 3.44.13 5.16.13h76.38a22.06 22.06 0 0 0 5.5-.45 20 20 0 0 0 12.81-9.81 31.52 31.52 0 0 0 2.1-5.5c7.84 4.08 15.85 7.88 23.75 11.85a1.11 1.11 0 0 0 1.77-.9V88.2a2.3 2.3 0 0 0-1.54-2L76.23 53.31q33.23-16.49 66.47-33a2.24 2.24 0 0 0 1.35-2V4.77a1.07 1.07 0 0 0-1.54-.82l-24.08 11.94a20.65 20.65 0 0 0-3.13-7.31A19.9 19.9 0 0 0 100.55.04H18.64A19.63 19.63 0 0 0 .05 17.4z"/><path d="M15.22 17.49a4.94 4.94 0 0 1 4.58-2.72h79.17a5 5 0 0 1 5 4.28c.1 1.33.05 2.66 0 4l-44.4 22c-15-7.36-29.91-14.81-44.86-22.22.07-1.78-.31-3.69.51-5.34zM14.71 83.85Q37.07 72.7 59.48 61.64c14.86 7.24 29.66 14.68 44.5 22-.1 1.92.37 4-.64 5.77a4.94 4.94 0 0 1-4.33 2.49h-79.2a5 5 0 0 1-4.55-2.65c-.88-1.66-.48-3.6-.55-5.4z"/></g><path d="M.05 17.4A19.63 19.63 0 0 1 18.65.01h81.94a19.9 19.9 0 0 1 14.75 8.54 20.65 20.65 0 0 1 3.13 7.31l24.08-11.94a1.07 1.07 0 0 1 1.54.82v13.54a2.24 2.24 0 0 1-1.39 2.12q-33.23 16.48-66.47 33l66.32 32.81a2.3 2.3 0 0 1 1.54 2v13.56a1.11 1.11 0 0 1-1.77.9c-7.9-4-15.91-7.77-23.75-11.85a31.52 31.52 0 0 1-2.1 5.5 20 20 0 0 1-12.79 9.87 22.06 22.06 0 0 1-5.5.45H21.81c-1.72 0-3.45 0-5.16-.13A19.6 19.6 0 0 1 .05 89.08V75.96a2.91 2.91 0 0 1 2-2.39c13.62-6.73 27.21-13.52 40.85-20.22Q22.29 43.09 1.65 32.89a2.65 2.65 0 0 1-1.58-2.41C.05 26.13-.02 21.76.05 17.4zm15.18.09c-.82 1.65-.44 3.56-.51 5.34 15 7.41 29.89 14.86 44.86 22.22q22.19-11 44.4-22c0-1.33.06-2.66 0-4a5 5 0 0 0-5-4.28H19.8a4.94 4.94 0 0 0-4.58 2.72zm-.51 66.36c.07 1.8-.32 3.74.55 5.41a5 5 0 0 0 4.55 2.65h79.23a4.94 4.94 0 0 0 4.33-2.49c1-1.75.54-3.85.64-5.77-14.83-7.32-29.64-14.76-44.5-22q-22.47 11.1-44.81 22.2z"/></svg>